<?xml version="1.0" encoding="UTF-8"?>
<svg id="Layer_1" data-name="Layer 1" xmlns="http://www.w3.org/2000/svg" version="1.1" viewBox="0 0 570 570">
  <defs>
    <style>
      .cls-1 {
        fill: #7d7d7d;
      }

      .cls-1, .cls-2, .cls-3, .cls-4, .cls-5, .cls-6, .cls-7, .cls-8, .cls-9 {
        stroke-width: 0px;
      }

      .cls-2 {
        fill: #000;
      }

      .cls-2, .cls-4 {
        display: none;
      }

      .cls-3 {
        fill: #9a9a9a;
      }

      .cls-4, .cls-5 {
        fill: #fdfdfd;
      }

      .cls-6 {
        fill: #e8e8e8;
      }

      .cls-7 {
        fill: #14b580;
      }

      .cls-8 {
        fill: #b6b6b6;
      }

      .cls-9 {
        fill: #d1d1d1;
      }
    </style>
  </defs>
  <path class="cls-4" d="M284.98,584.9c-98.61,0-197.22-.02-295.83.09-3.32,0-4.15-.52-4.15-4.04.11-197.23.11-394.46,0-591.69,0-3.79.97-4.26,4.43-4.26,197.05.1,394.1.1,591.16,0,3.53,0,4.4.57,4.4,4.29-.12,197.06-.12,394.13.01,591.19,0,4.01-1.01,4.52-4.69,4.52-98.44-.12-196.89-.1-295.33-.1Z"/>
  <path class="cls-2" d="M569.89,285.55c-.04,157.12-127.4,284.39-284.57,284.36-157.02-.03-284.38-127.6-284.22-284.69C1.26,128.3,128.68.99,285.45,1.09c157.21.1,284.48,127.39,284.44,284.46Z"/>
  <path class="cls-9" d="M285.97,136.25c42.9-2.82,73.65,24.31,90.3,79.67,1.54,50.64.28,101.3.67,151.95.02,2.79.36,5.72-2,7.94-29.65,0-59.31,0-88.96,0-2.48-2.4-1.96-5.53-1.96-8.47-.04-35.27-.02-70.55-.02-105.82,0-38.93-.01-77.87.02-116.8,0-2.94-.54-6.07,1.96-8.46Z"/>
  <path class="cls-6" d="M285.97,136.25c0,79.85,0,159.7,0,239.55-29.32,0-58.64,0-87.96,0-1.93-1.77-1.96-4.13-1.97-6.47-.04-42.61-.04-85.22,0-127.83,0-3.83,1-7.56,1.75-11.3,16.02-38.08,27.07-80.21,74.88-92.47,4.28-1.1,8.85-1.02,13.29-1.49Z"/>
  <path class="cls-8" d="M374.94,375.81c0-51.28,0-102.57.08-153.85,0-2.01.03-8.01-.04-10.2,11.36,30.2,22.95,65.08,43.03,91.1,1.33,3.09,1.98,6.27,1.96,9.67-.06,18.44,0,36.88-.05,55.32,0,2.79.37,5.73-2.02,7.93-14.32,0-28.65.02-42.97.02Z"/>
  <path class="cls-5" d="M197.8,230.21l.21,145.6c-13.36-.02-26.73-.03-40.09-.05-1.88-1.81-1.84-4.19-1.85-6.51-.05-18.78-.02-37.56-.03-56.35,0-2.71.56-5.27,1.78-7.69,17.33-22.87,29.57-48.45,39.98-75.01Z"/>
  <path class="cls-7" d="M157.83,305.22c.03,23.52.07,47.03.1,70.55-34.18,0-68.36,0-104.87,0,44.24-12.3,77.43-37.16,104.77-70.55Z"/>
  <path class="cls-3" d="M417.91,375.79c.03-24.31.07-48.62.1-72.92,12.79,15.96,27.47,29.92,44.03,41.91,1.22,1.66,1.83,3.52,1.85,5.59.05,6.66.08,13.32-.02,19.99-.03,2.02-.32,4.01-1.98,5.46-14.66-.01-29.32-.02-43.98-.03Z"/>
  <path class="cls-1" d="M461.89,375.82c.05-10.35.1-20.7.15-31.04,21.83,14.2,45.11,25.06,74.19,31.04h-74.34Z"/>
</svg>